<svg xmlns="http://www.w3.org/2000/svg" width="460" height="420" viewBox="0 0 460 420" font-family="'JetBrains Mono','SFMono-Regular',Menlo,Consolas,'Liberation Mono',monospace">
<style>.shape{transform-origin:230px 228px;animation:grow 1.1s cubic-bezier(.2,.8,.2,1) both}@keyframes grow{from{transform:scale(0);opacity:0}}@media (prefers-reduced-motion:reduce){.shape{animation:none}}</style>
<rect x="1" y="1" width="458" height="418" rx="12" fill="#161b22" stroke="#30363d"/>
<text x="20" y="32" fill="#2dd4bf" font-size="14" font-weight="700">$ cat languages.radar</text>
<text x="440" y="32" text-anchor="end" fill="#8b949e" font-size="11">by repo count</text>
<polygon points="230.0,204.4 252.4,220.7 243.9,247.1 216.1,247.1 207.6,220.7" fill="none" stroke="#30363d" stroke-width="1"/>
<polygon points="230.0,180.8 274.9,213.4 257.7,266.2 202.3,266.2 185.1,213.4" fill="none" stroke="#30363d" stroke-width="1"/>
<polygon points="230.0,157.2 297.3,206.1 271.6,285.3 188.4,285.3 162.7,206.1" fill="none" stroke="#30363d" stroke-width="1"/>
<polygon points="230.0,133.6 319.8,198.8 285.5,304.4 174.5,304.4 140.2,198.8" fill="none" stroke="#30363d" stroke-width="1"/>
<polygon points="230.0,110.0 342.2,191.5 299.4,323.5 160.6,323.5 117.8,191.5" fill="none" stroke="#30363d" stroke-width="1"/>
<line x1="230" y1="228" x2="230.0" y2="110.0" stroke="#30363d"/>
<line x1="230" y1="228" x2="342.2" y2="191.5" stroke="#30363d"/>
<line x1="230" y1="228" x2="299.4" y2="323.5" stroke="#30363d"/>
<line x1="230" y1="228" x2="160.6" y2="323.5" stroke="#30363d"/>
<line x1="230" y1="228" x2="117.8" y2="191.5" stroke="#30363d"/>
<g class="shape"><polygon points="230.0,110.0 262.1,217.6 239.9,241.6 220.1,241.6 214.0,222.8" fill="#2dd4bf" fill-opacity=".22" stroke="#2dd4bf" stroke-width="2" stroke-linejoin="round"/>
<circle cx="230.0" cy="110.0" r="3.5" fill="#2dd4bf"/>
<circle cx="262.1" cy="217.6" r="3.5" fill="#2dd4bf"/>
<circle cx="239.9" cy="241.6" r="3.5" fill="#2dd4bf"/>
<circle cx="220.1" cy="241.6" r="3.5" fill="#2dd4bf"/>
<circle cx="214.0" cy="222.8" r="3.5" fill="#2dd4bf"/>
</g>
<text x="230.0" y="93.9" text-anchor="middle" fill="#e6edf3" font-size="11.5">Python 88%</text>
<text x="361.3" y="189.3" text-anchor="start" fill="#e6edf3" font-size="11.5">JavaScript 7%</text>
<text x="311.1" y="343.7" text-anchor="start" fill="#e6edf3" font-size="11.5">HTML 2%</text>
<text x="148.9" y="343.7" text-anchor="end" fill="#e6edf3" font-size="11.5">CSS 2%</text>
<text x="98.7" y="189.3" text-anchor="end" fill="#e6edf3" font-size="11.5">TypeScript 2%</text>
</svg>